<?xml version="1.0" encoding="UTF-8" standalone="no"?>
<!-- Created with Inkscape (http://www.inkscape.org/) -->

<svg
   xmlns:dc="http://purl.org/dc/elements/1.1/"
   xmlns:cc="http://creativecommons.org/ns#"
   xmlns:rdf="http://www.w3.org/1999/02/22-rdf-syntax-ns#"
   xmlns:svg="http://www.w3.org/2000/svg"
   xmlns="http://www.w3.org/2000/svg"
   xmlns:sodipodi="http://sodipodi.sourceforge.net/DTD/sodipodi-0.dtd"
   xmlns:inkscape="http://www.inkscape.org/namespaces/inkscape"
   width="56.444443mm"
   height="67.732635mm"
   viewBox="0 0 199.99999 239.99752"
   id="svg2"
   version="1.1"
   inkscape:version="0.91 r13725"
   sodipodi:docname="logo_blue.svg">
  <defs
     id="defs4" />
  <sodipodi:namedview
     id="base"
     pagecolor="#ffffff"
     bordercolor="#666666"
     borderopacity="1.0"
     inkscape:pageopacity="0.0"
     inkscape:pageshadow="2"
     inkscape:zoom="1.76"
     inkscape:cx="-10.457528"
     inkscape:cy="120.63663"
     inkscape:document-units="px"
     inkscape:current-layer="layer1"
     showgrid="false"
     fit-margin-top="0"
     fit-margin-left="0"
     fit-margin-right="0"
     fit-margin-bottom="0"
     inkscape:window-width="1489"
     inkscape:window-height="933"
     inkscape:window-x="101"
     inkscape:window-y="5"
     inkscape:window-maximized="0" />
  <metadata
     id="metadata7">
    <rdf:RDF>
      <cc:Work
         rdf:about="">
        <dc:format>image/svg+xml</dc:format>
        <dc:type
           rdf:resource="http://purl.org/dc/dcmitype/StillImage" />
        <dc:title></dc:title>
      </cc:Work>
    </rdf:RDF>
  </metadata>
  <g
     inkscape:label="Layer 1"
     inkscape:groupmode="layer"
     id="layer1"
     transform="translate(-1.235229e-7,-812.36523)">
    <path
       style="fill:#000000"
       d=""
       id="path4149"
       inkscape:connector-curvature="0" />
    <path
       style="fill:#2196f3;fill-opacity:1"
       d="m 48.542212,1052.2944 c -1.12235,-0.1274 -1.75337,-0.2664 -2.956044,-0.651 -3.392348,-1.085 -6.278482,-3.5146 -7.794144,-6.5611 -0.989973,-1.9899 -1.348715,-3.5373 -1.351226,-5.8282 -0.0019,-1.7009 0.138169,-2.5852 0.652786,-4.1227 1.484854,-4.436 5.496189,-7.7895 10.393127,-8.6888 1.314915,-0.2414 3.904614,-0.2359 5.201484,0.011 4.290225,0.8173 7.81102,3.3883 9.66957,7.0612 0.928155,1.8342 1.332741,3.5794 1.333251,5.751 0.001,2.7427 -0.659468,4.9354 -2.162297,7.1825 -1.931532,2.8881 -5.117341,4.9593 -8.681168,5.6439 -1.237483,0.2377 -3.1863,0.3292 -4.305339,0.2021 z m 4.193647,-2.9276 c 3.683731,-0.9422 6.525382,-3.6956 7.610912,-7.3745 0.377278,-1.2787 0.449789,-3.3706 0.164347,-4.7414 -1.376093,-6.6088 -8.79334,-10.2241 -14.99473,-7.3087 -1.268132,0.5962 -1.933732,1.0541 -2.964966,2.04 -2.007683,1.9193 -3.024393,4.1644 -3.135325,6.9234 -0.04346,1.081 -0.01631,1.4664 0.164667,2.3374 0.901908,4.3408 4.463024,7.6658 8.956247,8.3626 1.05436,0.1635 3.075467,0.048 4.198848,-0.2388 z m 108.033191,2.9364 c -3.00911,-0.348 -5.59985,-1.4665 -7.77233,-3.3556 -2.08943,-1.8168 -3.52799,-4.2844 -4.14194,-7.1047 -0.2586,-1.1879 -0.26237,-3.8916 -0.007,-5.0781 1.14906,-5.3405 5.25352,-9.234 10.87105,-10.3125 1.40747,-0.2702 4.09717,-0.251 5.46197,0.039 1.31005,0.2783 2.36313,0.6286 3.53628,1.1762 0.96878,0.4522 2.70901,1.5462 3.04015,1.9112 0.21429,0.2363 0.2665,0.1389 -0.76828,1.4327 l -0.68331,0.8543 -0.63926,-0.4817 c -1.37832,-1.0384 -2.71382,-1.6756 -4.5375,-2.1648 -0.86364,-0.2317 -1.13744,-0.2572 -2.75929,-0.2572 -1.63896,0 -1.89027,0.024 -2.8008,0.2675 -1.19438,0.3193 -2.94621,1.1594 -3.86044,1.8511 -1.38143,1.0453 -2.67354,2.6784 -3.29528,4.165 -0.61938,1.4811 -0.73262,2.0955 -0.7388,4.0085 -0.007,2.1033 0.15415,2.838 0.99238,4.5304 2.81553,5.6847 9.8931,7.5936 15.75466,4.2492 l 0.85025,-0.4851 0.0261,-3.9979 0.0261,-3.9979 1.3002,0 1.30021,0 -0.026,4.7525 -0.026,4.7526 -0.75022,0.5203 c -0.92922,0.6444 -2.6618,1.5096 -3.84093,1.9182 -1.92428,0.6667 -4.724,1.0136 -6.51202,0.8068 z m -158.195158,-12.9993 0,-12.994 1.828882,0 1.828872,0 4.732861,9.3347 c 2.603073,5.1341 4.76582,9.3698 4.806111,9.4125 0.04029,0.043 2.207721,-4.1569 4.816505,-9.3326 l 4.743264,-9.4105 1.825521,0 1.825521,0 0,12.9939 0,12.9939 -1.350385,0 -1.350386,0 -0.01218,-9.036 c -0.0067,-4.9698 -0.04046,-9.8201 -0.07502,-10.7785 l -0.06284,-1.7424 -4.726459,9.3845 -4.726449,9.3845 -0.900047,0 -0.900046,0 -4.745955,-9.4343 -4.7459445,-9.4343 -0.0055,10.8283 -0.0055,10.8283 -1.4003997,0 -1.4003997,0 0,-12.9939 z m 68.519557,0 0,-12.9965 1.570928,0.027 1.570928,0.027 7.806748,10.5182 7.806749,10.5181 0.02546,-10.543 0.02547,-10.5431 1.449954,0 1.449964,0 0,12.994 0,12.9939 -1.492366,0 -1.492376,0 -7.835286,-10.5367 -7.835297,-10.5366 -0.02547,10.5366 -0.02546,10.5367 -1.499978,0 -1.499968,0 0,-12.9965 z m 36.610441,1.3467 0,-11.6497 -4.30122,0 -4.301228,0 0,-1.3442 0,-1.3443 10.052868,0 10.05288,0 0,1.3443 0,1.3442 -4.30123,0 -4.30123,0 0,11.6497 0,11.6497 -1.45042,0 -1.45042,0 0,-11.6497 z m 11.5033,11.6206 c 0,-0.019 2.62583,-5.856 5.83517,-12.9715 l 5.83517,-12.9375 1.54725,-0.027 1.54725,-0.027 0.15606,0.326 c 0.42796,0.8942 11.48663,25.5379 11.48663,25.5975 0,0.038 -0.70895,0.068 -1.57545,0.068 l -1.57545,0 -1.46301,-3.309 -1.46303,-3.3089 -7.15121,-0.026 -7.15122,-0.025 -0.36407,0.8221 c -0.20022,0.4522 -0.85575,1.9423 -1.4567,3.3114 l -1.09265,2.4892 -1.55738,0.027 c -0.85654,0.015 -1.55736,0.012 -1.55736,-0.01 z m 19.07818,-9.4549 c -0.0268,-0.068 -1.36834,-3.0951 -2.98128,-6.7258 -2.65325,-5.9724 -2.94406,-6.5794 -3.05282,-6.3725 -0.18812,0.358 -5.66258,12.8531 -5.71689,13.0485 -0.0457,0.1645 0.28189,0.1742 5.87562,0.1742 4.69851,0 5.91397,-0.026 5.87537,-0.1244 z m 42.83949,-3.5099 0,-12.994 8.85253,0 8.85252,0 0,1.3442 0,1.3442 -7.40211,0 -7.40211,0 0,4.3811 0,4.3811 6.60188,0 6.60189,0 0,1.3442 0,1.3442 -6.6029,0 -6.60289,0 0.026,4.5554 0.026,4.5553 7.57716,0.025 7.57717,0.026 0,1.3435 0,1.3436 -9.05259,0 -9.05258,0 0,-12.9939 z m -85.062395,-28.1386 c -21.79323,-0.8212 -42.627136,-8.6824 -59.435724,-22.42665 -6.507527,-5.32115 -12.595085,-11.72437 -17.433576,-18.33756 -0.721216,-0.98575 -1.643879,-2.24033 -2.050375,-2.78797 -0.406496,-0.54764 -0.818243,-1.15253 -0.914991,-1.3442 -0.09675,-0.19168 -0.616656,-1.04673 -1.15534,-1.90012 -2.435655,-3.8586 -5.3542779,-9.42008 -7.1282943,-13.58309 -9.435583,-22.14203 -10.5051283,-47.10686 -2.9988659,-69.99805 6.1297392,-18.69331 17.8736712,-35.24847 33.7388992,-47.56094 7.268995,-5.64123 15.536055,-10.36646 24.106881,-13.77884 21.223257,-8.44982 45.150261,-9.37553 67.073081,-2.59501 10.21396,3.15908 19.91906,7.9964 28.65425,14.28216 10.81875,7.78507 20.25173,17.95333 27.12834,29.24294 3.04151,4.99339 5.93911,10.93605 8.00961,16.42687 5.13746,13.62421 7.20241,28.39741 6.01939,43.06423 -0.85928,10.65311 -3.43249,21.0982 -7.61651,30.91664 -1.77402,4.16301 -4.69264,9.72449 -7.12829,13.58309 -0.53869,0.85339 -1.0586,1.70844 -1.15534,1.90012 -0.0968,0.19167 -0.5085,0.79656 -0.915,1.3442 -0.40649,0.54764 -1.32916,1.80222 -2.05037,2.78797 -4.83849,6.61319 -10.92606,13.01641 -17.43358,18.33756 -18.89046,15.44655 -42.63302,23.35675 -67.314195,22.42665 z m 9.890925,-9.3501 c 9.73509,-0.6828 18.86748,-2.73992 27.60789,-6.21881 15.55011,-6.18928 29.15379,-16.6041 39.19796,-30.0095 l 1.07055,-1.42881 -0.17855,-0.27156 c -0.0982,-0.14935 -7.73441,-11.37045 -16.96934,-24.9358 l -16.79077,-24.66426 -0.67341,0.97415 c -0.37039,0.53578 -4.55505,6.68699 -9.29928,13.66937 -6.16562,9.07437 -8.78011,12.84265 -9.16671,13.21209 -1.61295,1.54134 -4.13148,1.70093 -5.93909,0.37635 -0.42082,-0.30837 -0.8059,-0.73682 -1.32524,-1.47451 -0.40263,-0.5719 -8.60931,-12.62472 -18.237057,-26.78404 -9.627748,-14.15933 -17.527502,-25.74545 -17.55501,-25.74694 -0.02751,-0.001 -11.627339,17.01133 -25.777398,37.80626 -25.588623,37.60505 -25.726512,37.81031 -25.566076,38.05789 0.0887,0.13691 0.567101,0.78661 1.063083,1.44377 10.030833,13.2906 23.5783,23.62655 39.027179,29.77554 7.690315,3.06092 15.778193,5.04391 24.10688,5.91061 1.657113,0.1725 3.78403,0.3263 6.201771,0.4485 1.274093,0.064 7.675798,-0.033 9.202618,-0.1403 z M 47.508417,916.30283 c 15.349521,-22.55227 26.709993,-39.15062 26.971948,-39.4077 0.583467,-0.57258 1.618432,-1.08485 2.48611,-1.23054 1.409692,-0.23668 2.998216,0.28418 3.991959,1.30894 0.299506,0.30885 8.005065,11.54107 18.550295,27.04036 14.060951,20.66664 18.063631,26.48431 18.154261,26.38617 0.0639,-0.0692 4.2668,-6.22947 9.33968,-13.6894 5.36124,-7.88398 9.41815,-13.75462 9.68846,-14.01989 0.25577,-0.25101 0.79897,-0.62066 1.2071,-0.82145 0.672,-0.3306 0.83545,-0.3688 1.73109,-0.40461 0.81621,-0.0326 1.10653,-0.002 1.66168,0.17652 0.80414,0.25827 1.62284,0.79893 2.12831,1.4055 0.20305,0.24365 8.34986,12.1741 18.10404,26.51212 l 17.73489,26.06913 0.43948,-0.77822 c 0.81872,-1.44973 3.00237,-5.94591 3.81142,-7.84773 6.7872,-15.95468 8.81251,-33.17324 5.91589,-50.29511 -4.29851,-25.40845 -19.55152,-47.89757 -41.80973,-61.64448 -16.5075,-10.19521 -36.00754,-14.80273 -55.515856,-13.1174 -14.076738,1.21609 -27.759343,5.73571 -39.711334,13.1174 -17.444249,10.77375 -30.76118,27.05387 -37.687727,46.07372 -6.8351608,18.76889 -7.1948134,39.35873 -1.020091,58.39808 1.54385,4.76037 3.869634,10.20013 6.227007,14.5643 0.729058,1.34971 0.835979,1.50075 0.951552,1.3442 0.07161,-0.097 12.063913,-17.70996 26.649566,-39.13991 z m 8.280663,-45.53896 c -0.514096,-0.14609 -0.951581,-0.517 -1.19137,-1.01008 l -0.21156,-0.43503 0.02627,-11.29939 0.02628,-11.2994 0.275189,-0.41392 c 0.557789,-0.83896 1.792351,-1.12652 2.641754,-0.61532 0.252872,0.15218 1.900742,1.91285 4.285263,4.57858 5.368422,6.00153 5.053212,5.70406 6.051577,5.71102 0.660198,0.005 1.272643,-0.27877 1.634926,-0.75647 0.135369,-0.17849 1.695684,-2.60966 3.46737,-5.40261 1.771696,-2.79296 3.317767,-5.18482 3.435731,-5.31527 0.707602,-0.78249 2.229326,-0.78249 2.926495,0 0.116213,0.13045 1.684571,2.56712 3.485225,5.41484 1.986517,3.14164 3.428508,5.32079 3.667026,5.54165 0.871489,0.80695 2.026449,0.71487 2.952823,-0.23542 0.282471,-0.28977 2.27766,-2.49835 4.433756,-4.90795 2.471645,-2.76226 4.073492,-4.47247 4.335117,-4.62837 0.922633,-0.54981 2.228428,-0.17514 2.738198,0.78567 l 0.23284,0.43884 0,11.22014 0,11.22014 -0.23284,0.43884 c -0.15291,0.28821 -0.39914,0.54136 -0.71734,0.73754 l -0.48453,0.29872 -21.714047,0.0164 c -14.213807,0.0107 -21.834972,-0.018 -22.064148,-0.0831 z"
       id="path3350"
       inkscape:connector-curvature="0" />
  </g>
</svg>
