<?xml version="1.0" encoding="UTF-8" standalone="no"?>
<!-- Created with Inkscape (http://www.inkscape.org/) -->

<svg
   xmlns:dc="http://purl.org/dc/elements/1.1/"
   xmlns:cc="http://creativecommons.org/ns#"
   xmlns:rdf="http://www.w3.org/1999/02/22-rdf-syntax-ns#"
   xmlns:svg="http://www.w3.org/2000/svg"
   xmlns="http://www.w3.org/2000/svg"
   xmlns:sodipodi="http://sodipodi.sourceforge.net/DTD/sodipodi-0.dtd"
   xmlns:inkscape="http://www.inkscape.org/namespaces/inkscape"
   width="56.444443mm"
   height="56.444626mm"
   viewBox="0 0 199.99999 200.00064"
   id="svg2"
   version="1.1"
   inkscape:version="0.91 r13725"
   sodipodi:docname="montage_logo_white.svg">
  <defs
     id="defs4" />
  <sodipodi:namedview
     id="base"
     pagecolor="#ffffff"
     bordercolor="#666666"
     borderopacity="1.0"
     inkscape:pageopacity="0.0"
     inkscape:pageshadow="2"
     inkscape:zoom="2.03"
     inkscape:cx="90.640382"
     inkscape:cy="100.32498"
     inkscape:document-units="px"
     inkscape:current-layer="layer1"
     showgrid="false"
     fit-margin-top="0"
     fit-margin-left="0"
     fit-margin-right="0"
     fit-margin-bottom="0"
     inkscape:window-width="1489"
     inkscape:window-height="933"
     inkscape:window-x="101"
     inkscape:window-y="5"
     inkscape:window-maximized="0" />
  <metadata
     id="metadata7">
    <rdf:RDF>
      <cc:Work
         rdf:about="">
        <dc:format>image/svg+xml</dc:format>
        <dc:type
           rdf:resource="http://purl.org/dc/dcmitype/StillImage" />
        <dc:title />
      </cc:Work>
    </rdf:RDF>
  </metadata>
  <g
     inkscape:label="Layer 1"
     inkscape:groupmode="layer"
     id="layer1"
     transform="translate(2.1159165e-8,-852.36211)">
    <path
       style="fill:#000000"
       d=""
       id="path4149"
       inkscape:connector-curvature="0" />
    <path
       style="fill:#ffffff;fill-opacity:1"
       d="m 97.626953,850.38672 c -40.677122,0.29617 -79.15537,27.80295 -93.0968476,65.92401 -14.4155365,37.12268 -4.48487781,82.25273 24.7218476,109.46857 29.025617,28.8869 76.029007,36.7476 113.034527,19.4363 35.27746,-15.7315 59.76157,-52.80618 59.70291,-91.53933 1.10845,-39.74543 -23.72531,-78.38473 -60.04408,-94.35986 -13.85636,-6.2565 -29.12112,-9.31387 -44.318357,-8.92969 z m 2.347656,13.28516 c 37.452351,-0.76105 73.441821,25.62181 84.503911,61.53515 7.14759,21.8731 5.22532,46.78604 -5.42188,67.35352 -11.89476,-17.02319 -22.86557,-34.85859 -35.32812,-51.39649 -4.56187,-3.45741 -9.96936,0.78301 -11.73047,5.23633 -4.90527,6.72167 -9.71351,15.20398 -14.60743,20.89258 -12.05949,-17.19547 -23.210532,-35.12155 -35.697261,-51.96289 -4.342787,-3.51583 -9.947335,0.25434 -11.626154,4.76156 C 53.613884,944.19897 37.325202,968.41703 20.927734,992.56445 3.7237524,959.9767 10.109691,917.09497 36.042345,890.92334 52.498958,873.67032 76.08393,863.422 99.974609,863.67188 Z m -22.695312,18.43164 c -4.700998,1.29284 -5.605791,7.61764 -8.726563,10.83203 -1.93564,2.93669 -4.58572,-4.24598 -6.728581,-5.25101 -1.549718,-3.26113 -6.686794,-6.08585 -8.980403,-1.9736 -0.724263,8.11889 -0.770208,16.86254 -0.103516,25.10351 2.865977,4.73393 9.935083,1.14915 14.275391,2.34766 11.249083,-0.39809 22.752046,0.7069 33.882815,-0.48828 4.25319,-3.28593 1.03863,-9.81033 2.10351,-14.29688 -1.13392,-4.40793 2.21474,-11.00518 -2.00781,-14.20703 -5.171795,-2.53556 -7.770436,5.211 -11.068359,7.5625 -2.667789,5.53084 -4.229882,-1.46743 -6.192446,-3.62853 -1.731034,-2.15208 -2.930223,-6.49399 -6.454038,-6.00037 z m 4.089844,55.78515 c 10.936383,15.56198 20.918139,31.95996 32.410159,47.04492 4.46376,3.25438 9.72098,-0.64283 11.49162,-5.00349 4.90738,-7.15076 9.70781,-14.36486 14.63533,-21.50237 10.33361,15.5774 21.61304,31.1865 31.31445,46.77347 -19.79381,27.1786 -55.56022,41.0174 -88.165929,34.2308 -21.496343,-4.0677 -41.46119,-16.7423 -54.461021,-34.4847 16.339415,-24.17284 32.706894,-48.33195 49.091797,-72.46878 1.227864,1.80338 2.455729,3.60677 3.683594,5.41015 z"
       id="path4164"
       inkscape:connector-curvature="0" />
  </g>
</svg>
